<?xml version="1.0" encoding="UTF-8"?>
<svg width="192px" height="192px" viewBox="0 0 192 192" version="1.1" xmlns="http://www.w3.org/2000/svg" xmlns:xlink="http://www.w3.org/1999/xlink">
    <title>GOtv_App_Icon</title>
    <g id="Page-1" stroke="none" stroke-width="1" fill="none" fill-rule="evenodd">
        <g id="GOtv_App_Icon">
            <rect id="App-Icon-1024x1024" fill="#1919BA" x="0" y="0" width="192" height="192"></rect>
            <g id="Group-18" transform="translate(38.000000, 44.000000)">
                <path d="M95.4493894,103.553234 L91.4546466,103.553234 L91.4546466,103.253096 C91.4546466,100.447351 91.4672536,97.6416054 91.446242,94.8358602 C91.4411991,94.1971267 91.3714403,93.5500329 91.2487321,92.9230041 C91.0075178,91.683995 90.2057117,90.8688575 88.8895394,90.728403 C88.0440289,90.6389469 87.2153278,90.6924534 86.442938,91.0787031 C85.483124,91.5594253 85.0275905,92.4088404 84.8477304,93.4104145 C84.7468743,93.9722324 84.7082128,94.5516071 84.7056914,95.1234574 C84.6914035,97.8171735 84.6989677,100.511726 84.6989677,103.206278 L84.6989677,103.549053 L80.7084273,103.549053 L80.7084273,87.1944683 L84.6972867,87.1944683 L84.6972867,88.5062127 C85.1612249,88.1993865 85.5898634,87.8674793 86.0605253,87.6141596 C87.391826,86.8993467 88.8239829,86.754712 90.3023655,86.9628856 C91.4748179,87.1275852 92.5304452,87.5639973 93.3902436,88.3891673 C93.7163451,88.7018457 93.9844542,89.0738828 94.276937,89.4174946 C94.5979956,89.1123406 94.9198947,88.7704008 95.277934,88.4727711 C96.665546,87.3207101 98.2935319,86.8675772 100.075323,86.8801178 C101.208274,86.8884782 102.277349,87.1476501 103.267419,87.6969274 C104.252447,88.2428605 104.92146,89.0880955 105.411452,90.0721128 C106.044325,91.3445634 106.214099,92.7181746 106.214099,94.1210472 C106.213259,97.2018491 106.214099,100.281815 106.214099,103.361781 C106.214099,103.420303 106.209056,103.478826 106.205694,103.549889 L102.220197,103.549889 C102.220197,103.438696 102.220197,103.338372 102.220197,103.238047 C102.220197,100.440662 102.232804,97.6432775 102.211792,94.8467287 C102.206749,94.1987988 102.141193,93.5425086 102.01092,92.9079554 C101.743652,91.6028993 100.992273,90.9298883 99.6634941,90.7342553 C98.9095947,90.6230622 98.1615785,90.6866011 97.4505428,90.9650019 C96.3436469,91.3972338 95.8242379,92.3018275 95.614121,93.39871 C95.5082221,93.9513314 95.459475,94.5215097 95.4561131,95.0841636 C95.4409847,97.7954365 95.4493894,100.506709 95.4493894,103.218818 L95.4493894,103.553234 Z" id="Fill-2" fill="#00FFEB"></path>
                <path d="M72.160367,95.1475353 C72.0603514,92.5424393 69.7625128,90.3862961 66.978884,90.6471401 C64.6818859,90.862838 62.4630513,93.0791761 62.7891528,95.9074943 C63.0564215,98.2258291 65.0752248,100.199716 67.6041919,100.103572 C70.3886612,99.9973947 72.2973633,97.6414382 72.160367,95.1475353 L72.160367,95.1475353 Z M76.1778024,103.555575 L72.1948262,103.555575 L72.1948262,102.061574 C70.147447,103.703553 67.873982,104.195144 65.3979643,103.666768 C63.3329353,103.226175 61.6477977,102.124277 60.3820534,100.444675 C58.0110942,97.2969903 58.068246,92.8216762 60.8426297,89.7300058 C61.549463,88.9424576 62.3790045,88.3120845 63.3220092,87.8196579 C64.2566093,87.3314114 65.2458397,87.0287654 66.2922219,86.9209165 C67.3478493,86.8122315 68.3942315,86.8858028 69.4137188,87.193465 C70.4172371,87.496947 71.3367087,87.9676367 72.1805382,88.6782694 L72.1805382,87.1951371 L76.1778024,87.1951371 L76.1778024,103.555575 Z" id="Fill-4" fill="#00FFEB"></path>
                <path d="M52.4532497,93.7280255 C52.2582612,92.7364839 51.8413893,91.9012814 51.0152096,91.305186 C50.2638315,90.762597 49.4048736,90.545227 48.4929662,90.5101134 C46.6262875,90.438214 45.1512668,91.1254377 44.1864099,92.7573848 C44.0124331,93.0525064 43.9048533,93.3852498 43.7544096,93.7280255 L52.4532497,93.7280255 Z M56.4143737,96.6834216 L43.6989387,96.6834216 C43.9149389,97.5863432 44.287266,98.3688753 44.9302238,99.013461 C45.9186138,100.005003 47.1314086,100.379548 48.5131374,100.387908 C50.0242982,100.397105 51.2429763,99.7817803 52.3120511,98.7852224 C52.4171096,98.6874059 52.5305727,98.5962777 52.6507596,98.493445 C53.562667,99.2157823 54.4653293,99.9314312 55.3747153,100.65126 C53.8870875,102.463792 52.0758797,103.701129 49.6755041,103.930203 C47.9777595,104.091559 46.3161549,103.960301 44.7377567,103.273077 C42.962689,102.501414 41.6053338,101.271601 40.7186404,99.5460175 C39.8874179,97.929119 39.5579546,96.2110599 39.7630287,94.4135771 C40.0126476,92.2265004 40.9606951,90.3746751 42.626502,88.9049194 C43.6098491,88.0371115 44.7343948,87.4301475 46.0194699,87.1266655 C47.0952685,86.8725098 48.1828336,86.810643 49.2779629,86.9427371 C50.613466,87.1032565 51.8632414,87.5045549 52.9802229,88.2745464 C54.0350098,89.0010639 54.8737965,89.916526 55.4621239,91.0518663 C56.3404126,92.7473524 56.603479,94.5565397 56.4496734,96.4409705 C56.4446306,96.5086896 56.4303426,96.5764087 56.4143737,96.6834216 L56.4143737,96.6834216 Z" id="Fill-6" fill="#00FFEB"></path>
                <path d="M12.8574741,88.8742368 C12.1245863,89.8649424 11.43036,90.8029776 10.7184839,91.765258 C10.5613165,91.6707856 10.4100323,91.5788214 10.2579076,91.4893653 C8.9417353,90.7118494 7.52050451,90.3874665 5.99757713,90.5463138 C5.54876741,90.593968 5.10247909,90.7110134 4.857903,91.1499336 C4.52759922,91.745193 4.72174725,92.4098436 5.38655715,92.7609798 C5.92277551,93.0443969 6.49513398,93.2717993 7.07085432,93.4665963 C8.19708097,93.8469938 9.3392765,94.1939498 10.3764136,94.7791768 C11.9917924,95.6912948 12.7961199,97.0824628 12.7540966,98.9476647 C12.7255207,100.234328 12.3389055,101.381373 11.4194339,102.301015 C10.5882114,103.132873 9.55107435,103.606907 8.39711227,103.817589 C6.85989694,104.097662 5.32688395,104.06004 3.81152078,103.671282 C2.6289828,103.3678 1.57587684,102.785081 0.573198936,102.108726 C0.381572312,101.97914 0.198350365,101.837014 0,101.693215 C0.708514227,100.67492 1.40862378,99.670002 2.0809979,98.7035415 C2.8836445,99.0914633 3.64258679,99.496942 4.43262637,99.8288493 C5.44286849,100.253557 6.49429351,100.510221 7.60623221,100.272786 C8.05252053,100.176641 8.4794781,100.036187 8.74002307,99.6290361 C9.1342024,99.0120397 8.95013998,98.2888664 8.23154014,97.911813 C7.65750074,97.6108392 7.03135234,97.4018295 6.41781096,97.1827874 C5.46219924,96.8416837 4.48053303,96.5682991 3.54173067,96.1887377 C2.44407992,95.7456373 1.59940993,94.9865143 1.11530057,93.8871237 C0.848872324,93.2809958 0.776592107,92.6313938 0.785837251,91.9759397 C0.805168007,90.5889518 1.2522968,89.3666635 2.2600175,88.3859903 C2.82817363,87.8333689 3.5148357,87.4563155 4.27293752,87.2155364 C5.52187245,86.8200902 6.79770234,86.8100578 8.08361784,86.9655609 C9.25522974,87.1068514 10.3873397,87.3944487 11.4269981,87.9612828 C11.9144694,88.2279791 12.3674814,88.5590503 12.8574741,88.8742368" id="Fill-8" fill="#00FFEB"></path>
                <path d="M25.4380981,99.7205823 L25.4380981,99.9638695 C25.4380981,100.976312 25.4338958,101.988755 25.44146,103.001197 C25.4431409,103.180946 25.3969152,103.262041 25.2094909,103.323908 C24.0740191,103.700126 22.9116524,103.857301 21.7198692,103.767009 C19.9153852,103.630734 18.5605513,102.696879 17.8831344,101.011426 C17.5225738,100.11352 17.4233986,99.1738131 17.42592,98.214877 C17.4326438,95.9241315 17.4284414,93.633386 17.4284414,91.3426405 L17.4284414,91.0098972 L14.8213108,91.0098972 L14.8213108,87.1766606 L17.4200367,87.1766606 L17.4200367,81.8059493 L21.426546,81.8059493 L21.426546,87.1607759 L25.8684175,87.1607759 L25.8684175,90.9965206 L21.4509196,90.9965206 C21.4433554,91.0826325 21.4341102,91.1394831 21.4332698,91.1971698 C21.4332698,93.3416086 21.4290674,95.4868833 21.4374721,97.6321581 C21.439153,97.9297878 21.4778146,98.2315977 21.5391687,98.5233752 C21.713986,99.3594137 22.2754184,99.8234151 23.1402596,99.8493322 C23.51847,99.8602007 23.8992018,99.8401358 24.2774123,99.8192349 C24.6539418,99.7974979 25.0287904,99.7556959 25.4380981,99.7205823" id="Fill-10" fill="#00FFEB"></path>
                <path d="M28.8355205,87.183349 L32.8084111,87.183349 L32.8084111,88.7994114 C34.5053152,87.0245016 36.6216128,86.7561333 38.8799493,86.901604 L38.8799493,90.6922025 C38.7732099,90.6922025 38.6647896,90.6930386 38.5572098,90.6922025 C37.6268121,90.6913665 36.7014572,90.6896944 35.7811451,90.8928518 C34.1102954,91.2615448 32.9983567,92.4930295 32.862201,94.198548 C32.836987,94.5220949 32.8218585,94.8481499 32.8210181,95.1733689 C32.8184967,97.8578885 32.8193371,100.543244 32.8193371,103.227764 L32.8193371,103.547967 L28.8355205,103.547967 L28.8355205,87.183349 Z" id="Fill-12" fill="#00FFEB"></path>
                <path d="M0.000336187059,8.62875337 C0.000336187059,3.86333391 3.88413719,0 8.67480278,0 L77.5200292,0 C102.571848,0 116,16.0619717 116,35.8752481 C116,55.6893606 102.571848,71.7513323 77.5200292,71.7513323 L2.47887528,71.7513323 C1.10975348,71.7513323 0.000336187059,70.6477615 0.000336187059,69.2858547 L0.000336187059,8.62875337 Z" id="Fill-14" fill="#00FFEB"></path>
                <path d="M82.6979823,42.2476172 L71.2003849,42.2476172 C69.6001345,42.2476172 69.2185622,41.7936483 69.2185622,40.5646717 L69.2185622,34.2216476 C69.2185622,34.0084578 69.3883366,33.8370699 69.5967726,33.8228572 L76.2734476,33.8228572 C76.484405,33.8370699 76.7382262,33.9633117 76.8710201,34.122995 L82.8660758,41.9441352 C82.9845818,42.1113429 82.913142,42.2476172 82.6979823,42.2476172 M22.9466158,42.2041432 L20.3092283,42.2041432 C20.0848235,42.2041432 19.902442,42.0235589 19.902442,41.8011726 L19.902442,29.9453106 C19.902442,29.7229244 20.0848235,29.541504 20.3075474,29.541504 L22.9466158,29.541504 C29.4694852,29.541504 32.9296905,32.2084669 32.9296905,35.8678074 C32.9296905,39.5430326 29.436707,42.2041432 22.9466158,42.2041432 M100.247787,32.1415838 L98.3357234,32.1415838 C97.9986958,32.1415838 97.6885633,32.4567703 97.6843609,32.4634586 L90.420199,41.9240703 C90.2840433,42.0996384 90.0688836,42.0954582 89.9394516,41.9148739 L83.2316793,32.4651307 C83.2283174,32.4567703 82.9786985,32.1332234 82.5097175,32.1332234 L69.6253485,32.1332234 C69.4009436,32.1332234 69.2185622,31.9526391 69.2202431,31.7302528 L69.2294882,28.607649 C69.2294882,28.1595324 68.8638848,27.7983638 68.416756,27.7983638 L48.6834161,27.7983638 C45.6266353,27.9011965 44.3197081,28.2055145 42.9211699,29.0173079 C41.6318926,29.7689065 40.9889348,30.7219904 40.9889348,31.8681992 C40.9889348,33.0837992 41.9857294,34.2818423 43.9809996,35.4648368 C44.4936849,35.771663 46.3401923,36.6561917 49.5163196,38.1159149 C51.5115898,39.0330491 52.5882288,39.7879919 52.5100653,40.5329022 C52.389038,41.7317814 51.2939086,42.1431124 48.6834161,42.1431124 L36.7512969,42.1431124 C36.4630165,42.1431124 36.2268451,42.0929501 36.2268451,41.8688917 C36.2268451,41.7593707 36.2932421,41.6590461 36.4176313,41.5796224 L36.4159503,41.5779503 C39.0869565,39.9811168 39.9686071,37.8233014 39.9686071,35.8678074 C39.9686071,32.2084669 36.8740052,27.7983638 24.5552709,27.7983638 L13.8443512,27.7983638 C13.3963819,27.7983638 13.0332999,28.1595324 13.0332999,28.607649 L13.0332999,43.1463586 C13.0332999,43.5911311 13.3963819,43.9531357 13.8451917,43.9531357 L24.5552709,43.9531357 C24.9637382,43.9531357 25.3604389,43.9481195 25.7453731,43.938087 L52.5335984,43.938087 C54.9801997,43.938087 56.8914232,43.5351165 58.2714711,42.7341916 C59.54562,41.9884452 60.1826945,41.0445578 60.1826945,39.8916607 C60.1826945,38.6810769 59.1858999,37.4855419 57.1906297,36.3042195 C56.6804658,35.9982294 54.8347988,35.1070123 51.6536288,33.6406008 C49.6591991,32.7243026 48.6624044,31.9827365 48.6624044,31.4167384 C48.6624044,30.2019745 49.9542032,29.6134034 52.5335984,29.6134034 L61.5896373,29.6134034 C61.8140422,29.6134034 61.9955832,29.7931516 61.9964237,30.0155379 L61.9905404,40.5646717 C61.9905404,42.1113429 63.0201133,43.938087 66.1382482,43.938087 L91.0295381,43.938087 C91.6187059,43.938087 91.9170719,43.5585255 91.9170719,43.5585255 L100.445297,32.4099521 C100.445297,32.4099521 100.634402,32.1415838 100.247787,32.1415838" id="Fill-16" fill="#1919BA"></path>
            </g>
        </g>
    </g>
</svg>